<svg width="110" height="104" viewBox="0 0 110 104" fill="none" xmlns="http://www.w3.org/2000/svg">
<g clip-path="url(#clip0_1_18737)">
<path d="M51.0885 71.6174L27.2331 95.4729C23.9404 98.7655 22.2941 100.412 21.0469 101.004C16.766 103.039 11.6652 100.926 10.0765 96.4604C9.61359 95.1594 9.61359 92.8312 9.61359 88.1747L9.61359 28.7191C9.61359 24.1878 9.61359 21.9221 10.5049 20.1956C11.2665 18.7201 12.4685 17.5181 13.944 16.7564C15.6705 15.8652 17.9362 15.8652 22.4675 15.8652C26.8051 15.8652 28.9739 15.8652 30.658 16.7035C32.0981 17.4204 33.2887 18.5549 34.0742 19.9588C34.9928 21.6004 35.0973 23.7667 35.3065 28.0993L36.7782 58.5849C36.9694 62.5459 41.2297 64.9501 44.7193 63.0663C50.1837 60.1165 55.4795 67.2264 51.0885 71.6174Z" fill="url(#paint0_linear_1_18737)"/>
<path d="M41.1963 47.5L41.1963 29.6274C41.1963 13.188 41.1963 4.96828 46.1348 2.92267C51.0734 0.877066 56.8856 6.68927 68.51 18.3137L101.071 50.875C104.074 53.8772 105.575 55.3784 106.178 57.0927C106.784 58.8125 106.784 60.6875 106.178 62.4073C105.575 64.1216 104.074 65.6228 101.071 68.625C98.069 71.6272 96.5679 73.1284 94.8536 73.7321C93.1338 74.3377 91.2588 74.3377 89.539 73.7321C87.8247 73.1284 86.3235 71.6272 83.3213 68.625L68.347 53.6508C67.8884 53.1921 67.6591 52.9628 67.4522 52.7825C64.4399 50.1574 59.9526 50.1574 56.9403 52.7825C56.7335 52.9628 56.5042 53.1921 56.0455 53.6508L56.0453 53.651C55.0564 54.6399 54.5619 55.1344 54.2424 55.3941C49.3076 59.4054 41.8916 56.3335 41.2386 50.0077C41.1963 49.5981 41.1963 48.8987 41.1963 47.5Z" fill="url(#paint1_linear_1_18737)"/>
</g>
<defs>
<linearGradient id="paint0_linear_1_18737" x1="-5.23565" y1="30.7144" x2="43.3779" y2="79.328" gradientUnits="userSpaceOnUse">
<stop stop-color="#16A34A"/>
<stop offset="0.2" stop-color="#1CB454"/>
<stop offset="1" stop-color="#06B6D4"/>
</linearGradient>
<linearGradient id="paint1_linear_1_18737" x1="75.5713" y1="-9" x2="75.5713" y2="77.5" gradientUnits="userSpaceOnUse">
<stop stop-color="#16A34A"/>
<stop offset="0.4" stop-color="#22C55E"/>
<stop offset="1" stop-color="#06B6D4"/>
</linearGradient>
<clipPath id="clip0_1_18737">
<rect width="110" height="104" fill="white"/>
</clipPath>
</defs>
</svg>
